<svg width="469" height="218" viewBox="0 0 469 218" fill="none" xmlns="http://www.w3.org/2000/svg">
<path d="M466.511 167.89H23.336C11.2402 167.89 1.5 158.143 1.5 146.132V74.6459H35.46H36.2326L36.6812 74.017L88.1126 1.90894H290.736L342.169 74.017L342.617 74.6459H343.39H417.782C429.841 74.6459 440.772 80.222 447.938 89.1227L447.945 89.1319C452.01 94.0989 454.798 100.123 455.928 106.758L455.929 106.764L459.453 126.965L459.453 126.968L466.511 167.89Z" stroke="#1B98EE" stroke-width="3"/>
<path d="M23.337 167.89C12.4878 167.89 3.61873 160.012 1.91114 149.701H463.375L466.512 167.89H23.337Z" stroke="#1B98EE" stroke-width="3"/>
<path d="M420.837 171.055C420.837 196.09 400.542 216.384 375.508 216.384C350.473 216.384 330.179 196.09 330.179 171.055C330.179 146.021 350.473 125.726 375.508 125.726C400.542 125.726 420.837 146.021 420.837 171.055Z" fill="white" stroke="#2F4859" stroke-width="3"/>
<path d="M375.508 202.649C392.957 202.649 407.102 188.504 407.102 171.055C407.102 153.606 392.957 139.461 375.508 139.461C358.059 139.461 343.914 153.606 343.914 171.055C343.914 188.504 358.059 202.649 375.508 202.649Z" stroke="#64798A" stroke-width="2"/>
<path d="M383.025 171.055C383.025 175.206 379.659 178.572 375.508 178.572C371.356 178.572 367.991 175.206 367.991 171.055C367.991 166.903 371.356 163.538 375.508 163.538C379.659 163.538 383.025 166.903 383.025 171.055Z" stroke="#2F4859" stroke-width="2"/>
<path d="M375.446 143.284L380.923 143.856C380.691 146.492 379.999 148.79 379.047 150.454C377.963 152.345 376.679 153.213 375.498 153.213C374.325 153.213 373.044 152.347 371.961 150.454C371 148.772 370.304 146.442 370.08 143.77C371.818 143.45 373.615 143.287 375.446 143.284Z" stroke="#2F4859" stroke-width="2"/>
<path d="M355.825 151.461L360.101 147.992C361.802 150.02 362.938 152.134 363.441 153.984C364.012 156.088 363.717 157.609 362.882 158.445C362.052 159.274 360.534 159.568 358.43 158.995C356.561 158.485 354.421 157.33 352.373 155.599C353.376 154.143 354.532 152.757 355.825 151.461Z" stroke="#2F4859" stroke-width="2"/>
<path d="M347.732 171.116L348.304 165.639C350.94 165.871 353.238 166.562 354.902 167.515C356.793 168.598 357.661 169.883 357.661 171.064C357.661 172.237 356.795 173.518 354.902 174.6C353.22 175.562 350.89 176.258 348.218 176.482C347.898 174.743 347.735 172.946 347.732 171.116Z" stroke="#2F4859" stroke-width="2"/>
<path d="M355.908 190.737L352.439 186.461C354.467 184.76 356.581 183.624 358.431 183.121C360.535 182.55 362.056 182.845 362.892 183.68C363.721 184.509 364.015 186.028 363.442 188.132C362.932 190.001 361.777 192.141 360.046 194.189C358.59 193.186 357.204 192.029 355.908 190.737Z" stroke="#2F4859" stroke-width="2"/>
<path d="M375.563 198.83L370.086 198.258C370.318 195.622 371.009 193.324 371.962 191.66C373.045 189.768 374.33 188.901 375.511 188.901C376.684 188.901 377.965 189.767 379.047 191.66C380.009 193.341 380.705 195.671 380.929 198.344C379.19 198.664 377.393 198.827 375.563 198.83Z" stroke="#2F4859" stroke-width="2"/>
<path d="M395.184 190.654L390.908 194.123C389.207 192.095 388.071 189.981 387.568 188.131C386.997 186.027 387.292 184.506 388.127 183.67C388.956 182.841 390.475 182.547 392.579 183.12C394.448 183.63 396.588 184.785 398.636 186.516C397.633 187.972 396.476 189.358 395.184 190.654Z" stroke="#2F4859" stroke-width="2"/>
<path d="M403.277 170.999L402.705 176.476C400.069 176.244 397.771 175.552 396.107 174.6C394.215 173.516 393.348 172.232 393.348 171.051C393.348 169.878 394.214 168.597 396.107 167.514C397.788 166.553 400.119 165.857 402.791 165.633C403.111 167.371 403.274 169.168 403.277 170.999Z" stroke="#2F4859" stroke-width="2"/>
<path d="M395.101 151.378L398.57 155.654C396.542 157.355 394.428 158.491 392.578 158.993C390.474 159.565 388.953 159.27 388.117 158.435C387.288 157.605 386.994 156.087 387.567 153.983C388.077 152.114 389.232 149.974 390.963 147.926C392.419 148.929 393.805 150.085 395.101 151.378Z" stroke="#2F4859" stroke-width="2"/>
<path d="M144.407 171.055C144.407 196.09 124.113 216.384 99.078 216.384C74.0435 216.384 53.749 196.09 53.749 171.055C53.749 146.021 74.0435 125.726 99.078 125.726C124.113 125.726 144.407 146.021 144.407 171.055Z" fill="white" stroke="#2F4859" stroke-width="3"/>
<path d="M99.078 202.649C116.527 202.649 130.672 188.504 130.672 171.055C130.672 153.606 116.527 139.461 99.078 139.461C81.6291 139.461 67.484 153.606 67.484 171.055C67.484 188.504 81.6291 202.649 99.078 202.649Z" stroke="#64798A" stroke-width="2"/>
<path d="M106.595 171.055C106.595 175.207 103.229 178.572 99.0779 178.572C94.9264 178.572 91.5609 175.207 91.5609 171.055C91.5609 166.904 94.9264 163.538 99.0779 163.538C103.229 163.538 106.595 166.904 106.595 171.055Z" stroke="#2F4859" stroke-width="2"/>
<path d="M99.0194 143.284L104.496 143.856C104.264 146.492 103.573 148.79 102.62 150.454C101.537 152.346 100.252 153.213 99.071 153.213C97.8982 153.213 96.6171 152.348 95.5346 150.454C94.5729 148.773 93.8769 146.443 93.6528 143.77C95.3915 143.45 97.1886 143.287 99.0194 143.284Z" stroke="#2F4859" stroke-width="2"/>
<path d="M79.3974 151.461L83.6743 147.992C85.375 150.02 86.5109 152.134 87.0135 153.984C87.5851 156.088 87.2903 157.61 86.4548 158.445C85.6254 159.274 84.1073 159.568 82.0032 158.995C80.1339 158.486 77.9941 157.33 75.946 155.599C76.9491 154.143 78.1047 152.757 79.3974 151.461Z" stroke="#2F4859" stroke-width="2"/>
<path d="M71.304 171.116L71.8756 165.639C74.5122 165.871 76.8102 166.563 78.4736 167.515C80.3654 168.599 81.233 169.883 81.233 171.064C81.233 172.237 80.3673 173.518 78.4742 174.601C76.7924 175.562 74.4624 176.258 71.7898 176.482C71.4695 174.744 71.307 172.947 71.304 171.116Z" stroke="#2F4859" stroke-width="2"/>
<path d="M79.4805 190.738L76.0119 186.461C78.0399 184.76 80.1538 183.624 82.0037 183.122C84.1075 182.55 85.6293 182.845 86.4648 183.68C87.2942 184.51 87.5879 186.028 87.0146 188.132C86.5053 190.001 85.3498 192.141 83.6187 194.189C82.1625 193.186 80.7769 192.03 79.4805 190.738Z" stroke="#2F4859" stroke-width="2"/>
<path d="M99.1355 198.83L93.6591 198.258C93.8908 195.622 94.5823 193.324 95.5349 191.66C96.6183 189.769 97.9026 188.901 99.0839 188.901C100.257 188.901 101.538 189.767 102.62 191.66C103.582 193.342 104.278 195.672 104.502 198.344C102.763 198.665 100.966 198.827 99.1355 198.83Z" stroke="#2F4859" stroke-width="2"/>
<path d="M118.757 190.655L114.481 194.123C112.78 192.095 111.644 189.981 111.141 188.131C110.57 186.028 110.865 184.506 111.7 183.67C112.529 182.841 114.048 182.547 116.152 183.12C118.021 183.63 120.161 184.785 122.209 186.516C121.206 187.972 120.049 189.358 118.757 190.655Z" stroke="#2F4859" stroke-width="2"/>
<path d="M126.85 170.999L126.278 176.476C123.642 176.244 121.344 175.553 119.68 174.6C117.788 173.517 116.921 172.232 116.921 171.051C116.921 169.878 117.787 168.597 119.68 167.515C121.361 166.553 123.691 165.857 126.364 165.633C126.684 167.372 126.847 169.169 126.85 170.999Z" stroke="#2F4859" stroke-width="2"/>
<path d="M118.674 151.378L122.143 155.655C120.115 157.355 118.001 158.491 116.151 158.994C114.047 159.565 112.526 159.271 111.69 158.435C110.861 157.606 110.567 156.088 111.14 153.983C111.65 152.114 112.805 149.974 114.536 147.926C115.992 148.929 117.378 150.086 118.674 151.378Z" stroke="#2F4859" stroke-width="2"/>
<path d="M456.421 106.674L456.422 106.678L459.741 125.711H434.619C424.597 125.711 416.354 117.542 416.354 107.446C416.354 97.3511 424.596 89.1821 434.619 89.1821H448.628C452.587 94.1447 455.304 100.116 456.421 106.674Z" stroke="black" stroke-width="2"/>
<path d="M27.942 128.5H1.5V90.3091H27.942H27.9424C31.2636 90.3083 33.96 93.0044 33.96 96.3261V122.482C33.96 125.804 31.2644 128.5 27.942 128.5Z" stroke="#CE412D" stroke-width="3"/>
<path d="M47.5402 75.5681L93.0613 12.6311H116.324V75.5681H47.5402Z" stroke="#1474B6" stroke-width="3"/>
<path d="M324.447 75.5681H241.481L241.182 12.6311H278.926L324.447 75.5681Z" stroke="#1474B6" stroke-width="3"/>
<path d="M226.355 12.6311L226.581 75.5681H134.908V12.6311H226.355Z" stroke="#1474B6" stroke-width="3"/>
</svg>
