<svg width="469" height="218" viewBox="0 0 469 218" fill="none" xmlns="http://www.w3.org/2000/svg">
<path d="M460.931 126.71L457.407 106.506C456.233 99.6149 453.335 93.3499 449.106 88.1819C441.666 78.9409 430.312 73.1459 417.782 73.1459H343.39L291.509 0.408936H87.34L35.46 73.1459H0V146.132C0 158.975 10.415 169.39 23.336 169.39H468.292L460.931 126.71Z" fill="#1B98EE"/>
<path d="M0.208984 148.201C1.27198 160.059 11.129 169.39 23.337 169.39H468.293L464.638 148.201H0.208984Z" fill="#1B98EE"/>
<path d="M375.508 217.884C401.371 217.884 422.337 196.918 422.337 171.055C422.337 145.192 401.371 124.226 375.508 124.226C349.645 124.226 328.679 145.192 328.679 171.055C328.679 196.918 349.645 217.884 375.508 217.884Z" fill="#2F4859"/>
<path d="M375.508 202.649C392.957 202.649 407.102 188.504 407.102 171.055C407.102 153.606 392.957 139.461 375.508 139.461C358.059 139.461 343.914 153.606 343.914 171.055C343.914 188.504 358.059 202.649 375.508 202.649Z" fill="#64798A"/>
<path d="M375.508 179.572C380.212 179.572 384.025 175.759 384.025 171.055C384.025 166.351 380.212 162.538 375.508 162.538C370.804 162.538 366.991 166.351 366.991 171.055C366.991 175.759 370.804 179.572 375.508 179.572Z" fill="#EBF0F3"/>
<path d="M381.984 142.961C381.702 149.264 378.91 154.213 375.498 154.213C372.1 154.213 369.308 149.264 369.026 142.961C371.113 142.51 373.284 142.284 375.498 142.284L381.984 142.961Z" fill="#EBF0F3"/>
<path d="M360.219 146.609C364.477 151.265 366.002 156.739 363.589 159.152C361.186 161.555 355.712 160.029 351.056 155.772C352.213 153.977 353.589 152.282 355.154 150.717L360.219 146.609Z" fill="#EBF0F3"/>
<path d="M347.409 164.578C353.712 164.86 358.661 167.652 358.661 171.064C358.661 174.462 353.712 177.254 347.409 177.536C346.958 175.449 346.732 173.278 346.732 171.064L347.409 164.578Z" fill="#EBF0F3"/>
<path d="M351.056 186.343C355.712 182.085 361.186 180.56 363.599 182.973C366.002 185.376 364.476 190.85 360.219 195.506C358.424 194.349 356.729 192.973 355.164 191.408L351.056 186.343Z" fill="#EBF0F3"/>
<path d="M369.025 199.153C369.307 192.85 372.099 187.901 375.511 187.901C378.909 187.901 381.701 192.85 381.983 199.153C379.896 199.604 377.725 199.83 375.511 199.83L369.025 199.153Z" fill="#EBF0F3"/>
<path d="M390.79 195.506C386.532 190.85 385.007 185.376 387.42 182.963C389.823 180.56 395.297 182.086 399.953 186.343C398.796 188.138 397.42 189.833 395.855 191.398L390.79 195.506Z" fill="#EBF0F3"/>
<path d="M403.6 177.537C397.297 177.255 392.348 174.463 392.348 171.051C392.348 167.653 397.297 164.861 403.6 164.579C404.051 166.666 404.277 168.837 404.277 171.051L403.6 177.537Z" fill="#EBF0F3"/>
<path d="M399.953 155.772C395.297 160.03 389.823 161.555 387.41 159.142C385.007 156.739 386.533 151.265 390.79 146.609C392.585 147.766 394.28 149.142 395.845 150.707L399.953 155.772Z" fill="#EBF0F3"/>
<path d="M99.078 217.884C124.941 217.884 145.907 196.918 145.907 171.055C145.907 145.192 124.941 124.226 99.078 124.226C73.2151 124.226 52.249 145.192 52.249 171.055C52.249 196.918 73.2151 217.884 99.078 217.884Z" fill="#2F4859"/>
<path d="M99.078 202.649C116.527 202.649 130.672 188.504 130.672 171.055C130.672 153.606 116.527 139.461 99.078 139.461C81.6291 139.461 67.484 153.606 67.484 171.055C67.484 188.504 81.6291 202.649 99.078 202.649Z" fill="#64798A"/>
<path d="M99.0779 179.572C103.782 179.572 107.595 175.759 107.595 171.055C107.595 166.351 103.782 162.538 99.0779 162.538C94.3741 162.538 90.5609 166.351 90.5609 171.055C90.5609 175.759 94.3741 179.572 99.0779 179.572Z" fill="#EBF0F3"/>
<path d="M105.557 142.961C105.275 149.264 102.483 154.213 99.071 154.213C95.673 154.213 92.881 149.264 92.599 142.961C94.686 142.51 96.857 142.284 99.071 142.284L105.557 142.961Z" fill="#EBF0F3"/>
<path d="M83.7919 146.609C88.0499 151.265 89.5749 156.739 87.1619 159.152C84.7589 161.555 79.2849 160.029 74.6289 155.772C75.7859 153.977 77.1609 152.282 78.7269 150.717L83.7919 146.609Z" fill="#EBF0F3"/>
<path d="M70.981 164.578C77.284 164.86 82.233 167.652 82.233 171.064C82.233 174.462 77.284 177.254 70.981 177.536C70.53 175.449 70.304 173.278 70.304 171.064L70.981 164.578Z" fill="#EBF0F3"/>
<path d="M74.6289 186.343C79.2849 182.085 84.7589 180.56 87.1719 182.973C89.5749 185.376 88.0489 190.85 83.7919 195.506C81.9969 194.349 80.3019 192.973 78.7369 191.408L74.6289 186.343Z" fill="#EBF0F3"/>
<path d="M92.5979 199.153C92.8799 192.85 95.6719 187.901 99.0839 187.901C102.482 187.901 105.274 192.85 105.556 199.153C103.469 199.604 101.298 199.83 99.0839 199.83L92.5979 199.153Z" fill="#EBF0F3"/>
<path d="M114.363 195.506C110.105 190.85 108.58 185.376 110.993 182.963C113.396 180.56 118.87 182.086 123.526 186.343C122.369 188.138 120.993 189.833 119.428 191.398L114.363 195.506Z" fill="#EBF0F3"/>
<path d="M127.173 177.537C120.87 177.255 115.921 174.463 115.921 171.051C115.921 167.653 120.87 164.861 127.173 164.579C127.624 166.666 127.85 168.837 127.85 171.051L127.173 177.537Z" fill="#EBF0F3"/>
<path d="M123.526 155.772C118.87 160.03 113.396 161.555 110.983 159.142C108.58 156.739 110.106 151.265 114.363 146.609C116.158 147.766 117.853 149.142 119.418 150.707L123.526 155.772Z" fill="#EBF0F3"/>
<path d="M460.931 126.711H434.619C424.047 126.711 415.354 118.097 415.354 107.446C415.354 96.7961 424.046 88.1821 434.619 88.1821H449.106C453.335 93.3501 456.233 99.6151 457.407 106.506L460.931 126.711Z" fill="#EBF0F3"/>
<path d="M35.46 96.3261V122.482C35.46 126.632 32.093 130 27.942 130H0V88.8091H27.942C32.092 88.8081 35.46 92.1761 35.46 96.3261Z" fill="#CE412D"/>
<path d="M92.295 11.1311H117.824V77.0681H44.604L92.295 11.1311Z" fill="#1474B6"/>
<path d="M239.988 77.0681L239.675 11.1311H279.692L327.383 77.0681H239.988Z" fill="#1474B6"/>
<path d="M228.086 77.0681H133.408V11.1311H227.85L228.086 77.0681Z" fill="#1474B6"/>
</svg>
